<?xml version="1.0" encoding="UTF-8"?>
<svg id="Capa_2" data-name="Capa 2" xmlns="http://www.w3.org/2000/svg" viewBox="0 0 1274.53 303.8">
  <defs>
    <style>
      .cls-1 {
        fill: #69757b;
        stroke-width: 0px;
      }
    </style>
  </defs>
  <g id="Capa_1-2" data-name="Capa 1">
    <g>
      <g>
        <path class="cls-1" d="M628.15,297.46c-4.2-4.2-6.26-9.44-6.26-15.62s2.14-11.42,6.26-15.62c4.2-4.2,9.52-6.34,15.86-6.34,7.69,0,14.59,3.89,18.24,10.07l-6.03,3.49c-2.22-4.2-6.82-6.82-12.13-6.82-4.52,0-8.17,1.43-11.02,4.28-2.78,2.85-4.2,6.5-4.2,10.86s1.43,8.01,4.2,10.86c2.85,2.85,6.5,4.28,11.02,4.28,5.31,0,9.99-2.7,12.13-6.82l6.03,3.41c-1.74,3.09-4.28,5.55-7.53,7.45-3.17,1.82-6.74,2.7-10.63,2.7-6.42.16-11.74-1.98-15.94-6.19Z"/>
        <path class="cls-1" d="M679.29,296.35h18.72v6.66h-25.61v-42.35h25.38v6.66h-18.48v11.02h16.97v6.58h-16.97s0,11.42,0,11.42Z"/>
        <path class="cls-1" d="M734.81,260.66h6.98v42.35h-5.47l-19.98-28.71v28.71h-6.98v-42.35h5.47l19.98,28.71v-28.71Z"/>
        <path class="cls-1" d="M781.59,260.66v6.66h-11.9v35.69h-6.98v-35.69h-11.97v-6.66h30.85Z"/>
        <path class="cls-1" d="M814.74,303.01l-8.96-15.38h-8.25v15.38h-6.98v-42.35h16.97c3.81,0,6.98,1.35,9.6,3.97,2.7,2.62,3.97,5.79,3.97,9.6,0,5.39-3.41,10.31-8.41,12.29l9.6,16.42h-7.53v.08ZM797.53,267.17v14.12h9.99c3.73,0,6.66-3.17,6.66-7.06s-2.93-7.06-6.66-7.06h-9.99Z"/>
        <path class="cls-1" d="M851.62,303.8c-6.11,0-11.34-2.14-15.62-6.34-4.2-4.28-6.34-9.52-6.34-15.62s2.14-11.34,6.34-15.54c4.28-4.28,9.52-6.42,15.62-6.42s11.34,2.14,15.54,6.42c4.28,4.2,6.42,9.44,6.42,15.54s-2.14,11.34-6.42,15.62c-4.28,4.2-9.44,6.34-15.54,6.34ZM851.62,296.98c4.2,0,7.77-1.43,10.63-4.28,2.93-2.93,4.36-6.5,4.36-10.86s-1.43-8.01-4.36-10.78c-2.85-2.93-6.42-4.36-10.63-4.36s-7.77,1.43-10.71,4.36c-2.85,2.85-4.28,6.5-4.28,10.78s1.43,8.01,4.28,10.86c2.93,2.85,6.5,4.28,10.71,4.28Z"/>
        <path class="cls-1" d="M909.98,297.46c-4.2-4.2-6.26-9.44-6.26-15.62s2.14-11.42,6.26-15.62c4.2-4.2,9.52-6.34,15.86-6.34,7.69,0,14.59,3.89,18.24,10.07l-6.03,3.49c-2.22-4.2-6.82-6.82-12.13-6.82-4.52,0-8.17,1.43-11.02,4.28-2.78,2.85-4.2,6.5-4.2,10.86s1.43,8.01,4.2,10.86c2.85,2.85,6.5,4.28,11.02,4.28,5.31,0,9.99-2.7,12.13-6.82l6.03,3.41c-1.74,3.09-4.28,5.55-7.53,7.45-3.17,1.82-6.74,2.7-10.63,2.7-6.42.16-11.74-1.98-15.94-6.19Z"/>
        <path class="cls-1" d="M973.19,303.8c-6.11,0-11.34-2.14-15.62-6.34-4.2-4.28-6.34-9.52-6.34-15.62s2.14-11.34,6.34-15.54c4.28-4.28,9.52-6.42,15.62-6.42s11.34,2.14,15.54,6.42c4.28,4.2,6.42,9.44,6.42,15.54s-2.14,11.34-6.42,15.62c-4.2,4.2-9.44,6.34-15.54,6.34ZM973.19,296.98c4.2,0,7.77-1.43,10.63-4.28,2.93-2.93,4.36-6.5,4.36-10.86s-1.43-8.01-4.36-10.78c-2.85-2.93-6.42-4.36-10.63-4.36s-7.77,1.43-10.71,4.36c-2.85,2.85-4.28,6.5-4.28,10.78s1.43,8.01,4.28,10.86c2.93,2.85,6.5,4.28,10.71,4.28Z"/>
        <path class="cls-1" d="M1046.54,260.66v42.35h-6.98v-30.13l-12.85,21.25h-.87l-12.85-21.33v30.21h-6.98v-42.35h7.53l12.77,21.17,12.85-21.17s7.38,0,7.38,0Z"/>
        <path class="cls-1" d="M1066.84,296.35h18.72v6.66h-25.69v-42.35h25.38v6.66h-18.48v11.02h16.97v6.58h-16.97v11.42h.08Z"/>
        <path class="cls-1" d="M1121,303.01l-8.96-15.38h-8.25v15.38h-6.98v-42.35h16.97c3.81,0,6.98,1.35,9.6,3.97,2.7,2.62,3.97,5.79,3.97,9.6,0,5.39-3.41,10.31-8.41,12.29l9.6,16.42h-7.53v.08ZM1103.79,267.17v14.12h9.99c3.73,0,6.66-3.17,6.66-7.06s-2.93-7.06-6.66-7.06h-9.99Z"/>
        <path class="cls-1" d="M1142.26,297.46c-4.2-4.2-6.26-9.44-6.26-15.62s2.14-11.42,6.26-15.62c4.2-4.2,9.52-6.34,15.86-6.34,7.69,0,14.59,3.89,18.24,10.07l-6.03,3.49c-2.22-4.2-6.82-6.82-12.13-6.82-4.52,0-8.17,1.43-11.02,4.28-2.78,2.85-4.2,6.5-4.2,10.86s1.43,8.01,4.2,10.86c2.85,2.85,6.5,4.28,11.02,4.28,5.31,0,9.99-2.7,12.13-6.82l6.03,3.41c-1.74,3.09-4.28,5.55-7.53,7.45-3.17,1.82-6.74,2.7-10.63,2.7-6.5.16-11.82-1.98-15.94-6.19Z"/>
        <path class="cls-1" d="M1186.51,260.66h6.98v42.35h-6.98v-42.35Z"/>
        <path class="cls-1" d="M1233.69,303.01l-2.93-8.56h-18l-2.93,8.56h-7.53l15.38-42.35h8.25l15.31,42.35h-7.53ZM1215.05,287.94h13.4l-6.74-19.11-6.66,19.11Z"/>
        <path class="cls-1" d="M1256.93,296.35h17.21v6.66h-24.19v-42.35h6.98v35.69Z"/>
      </g>
      <g>
        <rect class="cls-1" x="1081.03" y="30.37" width="16.57" height="156.46"/>
        <path class="cls-1" d="M962.64,30.37h-51.15v156.46h51.15c21.01,0,40.76-8.09,55.59-22.84,14.91-14.83,23.08-34.5,23.08-55.59-.08-43.06-35.37-78.03-78.67-78.03M1006.02,153.29c-11.74,11.66-27.76,18.08-45.12,18.08h-33.15V45.84h33.15c17.37,0,33.39,6.42,45.12,18,11.74,11.58,18.24,27.44,18.24,44.49s-6.5,33.31-18.24,44.96"/>
        <path class="cls-1" d="M1205.38,30.45l-.08-.08h-11.26l-.08.08-69.15,156.3h17.68l25.06-57.73h64.23l25.06,57.73h17.68l-69.15-156.3ZM1174.37,113.64l25.38-58.45,25.38,58.45h-50.75Z"/>
        <path class="cls-1" d="M548.45,126.09c20.46-7.38,33.94-25.69,33.94-46.63,0-13.4-5.39-25.85-15.07-35.05-9.52-9.04-22.28-13.96-35.84-13.96h-59.16v83.19h-61.62l-36.88-83.19-.08-.08h-11.26l-.08.08-69.15,156.3h17.68l25.06-57.73h64.23l25.06,57.73h17.68l-25.54-57.73h54.8v57.73h16.34v-57.73l42.43-.4,32.2,58.13h19.51l-34.26-60.67ZM342.74,113.64l25.38-58.45,25.38,58.45h-50.75ZM531,113.64h-42.11V46.55h41.95c9.36,0,18.16,3.41,24.74,9.52,6.66,6.19,10.31,14.51,10.31,23.39s-3.65,17.92-10.31,24.35c-6.66,6.34-15.38,9.83-24.58,9.83"/>
        <polygon class="cls-1" points="728.54 186.83 650.43 106.5 728.54 30.37 706.42 30.37 639.17 95.8 639.17 30.37 622.59 30.37 622.59 186.83 639.17 186.83 639.17 117.76 706.42 186.83 728.54 186.83"/>
        <path class="cls-1" d="M815.14,30.45l-.08-.08h-11.26l-.08.08-69.15,156.3h17.68l25.06-57.73h64.23l25.06,57.73h17.68l-69.15-156.3ZM784.05,113.64l25.38-58.45,25.38,58.45h-50.75Z"/>
      </g>
      <g>
        <polygon class="cls-1" points="157.89 217.21 103.25 217.21 65.03 129.1 157.89 129.1 157.89 217.21"/>
        <polygon class="cls-1" points="86.28 217.21 48.06 129.1 0 129.1 0 217.21 86.28 217.21"/>
        <rect class="cls-1" x="173.83" y="129.1" width="43.38" height="88.1"/>
        <rect class="cls-1" x="173.83" width="43.38" height="113.64"/>
        <polygon class="cls-1" points="157.89 113.64 157.89 0 9.04 0 58.29 113.64 157.89 113.64"/>
        <polygon class="cls-1" points="41.32 113.64 0 18.32 0 113.64 41.32 113.64"/>
      </g>
    </g>
  </g>
</svg>