<?xml version="1.0" encoding="UTF-8"?>
<svg id="Capa_2" data-name="Capa 2" xmlns="http://www.w3.org/2000/svg" xmlns:xlink="http://www.w3.org/1999/xlink" viewBox="0 0 1800 1770.65">
  <defs>
    <style>
      .cls-1 {
        fill: none;
      }

      .cls-1, .cls-2 {
        stroke-width: 0px;
      }

      .cls-3 {
        clip-path: url(#clippath);
      }

      .cls-2 {
        fill: #f3da40;
      }
    </style>
    <clipPath id="clippath">
      <rect class="cls-1" width="1800" height="1770.65"/>
    </clipPath>
  </defs>
  <g id="Capa_1-2" data-name="Capa 1">
    <g class="cls-3">
      <g>
        <path class="cls-2" d="M160.99,1903.87c-18.76,0-36.97-3.02-53.73-8.98-25.11-8.93-45.92-23.99-60.18-43.55-25.2-34.58-27.02-79.27-4.98-122.61,18.81-36.98,53.69-72.08,103.68-104.34,55.84-36.03,129.62-67.73,219.27-94.2,31.95-9.44,65.77-18.19,101.39-26.25,40.22-175.41,3.52-347.12-103.79-471.45-100.22-116.13-257.9-192.42-468.64-226.77-249.19-40.62-569.31-21.33-951.47,57.32-9.27,1.91-18.34-4.06-20.25-13.34-1.91-9.27,4.06-18.34,13.34-20.25,386.27-79.5,710.57-98.87,963.9-57.58,113.03,18.42,212.81,49.19,296.54,91.44,77.43,39.07,142.21,88.45,192.54,146.77,36.33,42.09,65.43,89.21,86.49,140.05,19.58,47.27,32.37,98.08,38.02,151.02,6.76,63.4,3.28,129.41-10.03,194.87,199.78-41.15,452.84-61.97,754.82-61.97,9.47,0,17.14,7.67,17.14,17.14s-7.68,17.14-17.14,17.14c-307.71,0-563.7,21.66-763.36,64.5-5.59,21.43-12.23,42.74-19.92,63.81-28.94,79.36-70.69,150.18-120.73,204.78-51.84,56.57-108.62,91.2-164.2,100.13-9.63,1.55-19.24,2.32-28.72,2.32ZM456.69,1541.37c-28.57,6.77-55.88,13.99-81.94,21.69-214.95,63.48-281.54,140.78-302.09,181.2-16.22,31.89-15.47,62.74,2.12,86.88,17.77,24.38,50.28,38.41,86.51,38.41,7.53,0,15.22-.61,22.98-1.85,47.87-7.69,97.79-38.62,144.36-89.44,47.03-51.32,86.38-118.18,113.8-193.36,5.29-14.5,10.04-29.01,14.27-43.53Z"/>
        <path class="cls-2" d="M1193.36,151.79c-3.68,0-6.89-2.09-8.38-5.45l-7.4-16.69c-4.75-10.71-13.26-19.22-23.97-23.97l-16.69-7.4c-3.36-1.49-5.45-4.7-5.45-8.38,0-3.68,2.09-6.89,5.45-8.38l16.69-7.4c10.71-4.75,19.22-13.26,23.97-23.97l7.4-16.69c1.49-3.36,4.7-5.45,8.38-5.45h0c3.68,0,6.89,2.09,8.38,5.45l7.4,16.69c4.75,10.71,13.26,19.22,23.97,23.97l16.69,7.4c3.36,1.49,5.45,4.7,5.45,8.38,0,3.68-2.09,6.89-5.45,8.38l-16.69,7.4h0c-10.71,4.75-19.22,13.26-23.97,23.97l-7.4,16.69c-1.49,3.36-4.7,5.45-8.38,5.45ZM1143.39,89.89l14.39,6.38c13.05,5.78,23.42,16.15,29.2,29.2l6.38,14.39,6.38-14.39c5.78-13.05,16.16-23.42,29.2-29.2l14.39-6.38-14.39-6.38c-13.05-5.78-23.42-16.15-29.2-29.2l-6.38-14.39-6.38,14.39c-5.78,13.05-16.15,23.42-29.2,29.2l-14.39,6.38ZM1231.03,100.98h.01-.01Z"/>
        <g>
          <path class="cls-2" d="M841.24,1484.09c-9.17,0-16.77-7.26-17.12-16.5-.35-9.46,7.03-17.42,16.49-17.77l420.15-15.75c9.47-.34,17.42,7.03,17.77,16.49.35,9.46-7.03,17.42-16.49,17.77l-420.15,15.75c-.22,0-.44.01-.65.01Z"/>
          <path class="cls-2" d="M2073.81,1468.34h-725.04c-9.47,0-17.14-7.67-17.14-17.14s7.68-17.14,17.14-17.14h725.04c9.47,0,17.14,7.67,17.14,17.14s-7.68,17.14-17.14,17.14Z"/>
        </g>
        <path class="cls-2" d="M1979.91,204.82h-212.64c-2.84,0-5.14-2.3-5.14-5.14s2.3-5.14,5.14-5.14h212.64c2.84,0,5.14,2.3,5.14,5.14s-2.3,5.14-5.14,5.14Z"/>
        <path class="cls-2" d="M1704.72,204.82h-115.79c-2.84,0-5.14-2.3-5.14-5.14s2.3-5.14,5.14-5.14h115.79c2.84,0,5.14,2.3,5.14,5.14s-2.3,5.14-5.14,5.14Z"/>
        <path class="cls-2" d="M1849.62,287.11h-195.49c-2.84,0-5.14-2.3-5.14-5.14s2.3-5.14,5.14-5.14h195.49c2.84,0,5.14,2.3,5.14,5.14s-2.3,5.14-5.14,5.14Z"/>
        <path class="cls-2" d="M977.47,438.83c-1.32,0-2.63-.5-3.64-1.51-2.01-2.01-2.01-5.26,0-7.27l9.47-9.47c2.01-2.01,5.26-2.01,7.27,0,2.01,2.01,2.01,5.26,0,7.27l-9.47,9.47c-1,1-2.32,1.51-3.64,1.51Z"/>
        <path class="cls-2" d="M926.38,489.92c-1.32,0-2.63-.5-3.64-1.51-2.01-2.01-2.01-5.26,0-7.27l9.47-9.47c2.01-2.01,5.26-2.01,7.27,0,2.01,2.01,2.01,5.26,0,7.27l-9.47,9.47c-1,1-2.32,1.51-3.64,1.51Z"/>
        <path class="cls-2" d="M986.93,489.92c-1.32,0-2.63-.5-3.64-1.51l-9.47-9.47c-2.01-2.01-2.01-5.26,0-7.27,2.01-2.01,5.26-2.01,7.27,0l9.47,9.47c2.01,2.01,2.01,5.26,0,7.27-1,1-2.32,1.51-3.64,1.51Z"/>
        <path class="cls-2" d="M935.85,438.83c-1.32,0-2.63-.5-3.64-1.51l-9.47-9.47c-2.01-2.01-2.01-5.26,0-7.27,2.01-2.01,5.26-2.01,7.27,0l9.47,9.47c2.01,2.01,2.01,5.27,0,7.27-1,1-2.32,1.51-3.64,1.51Z"/>
        <path class="cls-2" d="M870.29,958.47h-264.3c-2.84,0-5.14-2.3-5.14-5.14s2.3-5.14,5.14-5.14h264.3c2.84,0,5.14,2.3,5.14,5.14s-2.3,5.14-5.14,5.14Z"/>
        <path class="cls-2" d="M814.18,879.94h-119.14c-2.84,0-5.14-2.3-5.14-5.14s2.3-5.14,5.14-5.14h119.14c2.84,0,5.14,2.3,5.14,5.14s-2.3,5.14-5.14,5.14Z"/>
        <g>
          <path class="cls-2" d="M1121.8,1378.44c-.32,0-.65-.01-.97-.04-46.09-4.33-127.42-19.39-154.28-71.67-15.16-29.51-10.58-65.52,13.64-107.04,16.35-28.04,45.67-49.28,89.61-64.93,37.07-13.2,79.74-20.74,117.39-27.39,28.54-5.04,55.5-9.81,75.81-16.24,63.74-20.21,126.06-49.43,186.33-77.69,88.21-41.36,179.42-84.14,279.74-101.55,186.78-32.43,307.8,22.1,447.92,85.24,42.6,19.19,86.64,39.04,135.02,57.58,32.59,12.49,57.67,17.1,77.83,20.81,26.55,4.88,45.73,8.41,55.7,27.93,8.48,16.61,9.27,42.17,3.11,101.27-5.37,51.53-21.76,92.57-48.71,121.96-29.3,31.96-70.14,49.13-121.39,51.04-5.68.21-10.45-4.22-10.66-9.9s4.22-10.45,9.9-10.66c111.42-4.14,143.28-86.34,150.4-154.57,4.57-43.81,6.15-75.85-.97-89.78-5.15-10.08-15.67-12.38-41.1-17.06-19.88-3.66-47.11-8.67-81.47-21.83-48.93-18.75-93.25-38.72-136.11-58.03-137.04-61.75-255.38-115.07-435.95-83.72-97.61,16.95-187.55,59.12-274.53,99.91-60.87,28.54-123.81,58.06-188.84,78.68-21.61,6.85-49.22,11.73-78.45,16.89-36.85,6.51-78.63,13.89-114.07,26.51-39.18,13.95-64.94,32.25-78.74,55.92-20.44,35.05-24.85,64.42-13.11,87.28,16.35,31.81,66.61,53.9,137.91,60.59,5.66.53,9.81,5.55,9.28,11.2-.5,5.33-4.98,9.33-10.23,9.33Z"/>
          <path class="cls-2" d="M1934.52,1388.19h-471.61c-5.68,0-10.29-4.61-10.29-10.29s4.6-10.29,10.29-10.29h471.61c5.68,0,10.29,4.61,10.29,10.29s-4.6,10.29-10.29,10.29Z"/>
          <path class="cls-2" d="M1050.31,1243.31c-5.58,0-10.16-4.46-10.28-10.07-.12-5.68,4.38-10.38,10.06-10.5,5.25-.11,12.4-.54,20.14-1.19,54.99-4.67,63.68-16,76.7-39.15,2.78-4.95,9.05-6.71,14.01-3.92,4.95,2.78,6.71,9.06,3.92,14.01-18.16,32.3-34.92,44.64-92.88,49.56-8.27.7-15.69,1.14-21.44,1.26-.07,0-.15,0-.22,0Z"/>
          <path class="cls-2" d="M1249.32,1461.61c-1.34,0-2.69-.26-4-.81-45.32-19.17-74.6-63.34-74.6-112.55,0-67.35,54.8-122.15,122.15-122.15s122.15,54.8,122.15,122.15c0,49.05-29.16,93.18-74.29,112.42-5.23,2.23-11.27-.2-13.49-5.43-2.23-5.23.2-11.27,5.43-13.5,37.53-16,61.79-52.7,61.79-93.49,0-56.01-45.57-101.58-101.58-101.58s-101.58,45.57-101.58,101.58c0,40.92,24.35,77.66,62.04,93.6,5.23,2.21,7.68,8.25,5.47,13.48-1.66,3.92-5.47,6.28-9.48,6.28Z"/>
          <path class="cls-2" d="M1457.26,1134.34c-9.2,0-17.1-6.2-19.46-15.47-2.55-9.99,2.06-19.92,11.2-24.17,25.92-12.03,45.72-21.43,58.84-27.93,71.51-35.42,131.21-60.23,224.74-82.23,29.85-7.02,94.58-11.15,101.66-10.86,2.96.12,5.72,1.51,7.57,3.81,1.86,2.3,2.64,5.29,2.13,8.21l-20.13,116.96c-.81,4.69-4.72,8.21-9.47,8.52l-355.74,23.11c-.45.03-.9.04-1.34.04ZM1457.69,1113.35c0,.11,0,.26.03.39l347.19-22.55,16.6-96.41c-20.77,1.27-62.73,4.74-84.22,9.79-91.6,21.55-150.15,45.88-220.32,80.64-13.27,6.57-33.21,16.04-59.28,28.14ZM1813.67,1100.93h.01-.01Z"/>
          <path class="cls-2" d="M1292.87,1393.49c-24.95,0-45.24-20.29-45.24-45.24s20.3-45.24,45.24-45.24,45.24,20.29,45.24,45.24-20.3,45.24-45.24,45.24ZM1292.87,1323.57c-13.6,0-24.67,11.07-24.67,24.67s11.07,24.67,24.67,24.67,24.67-11.07,24.67-24.67-11.07-24.67-24.67-24.67Z"/>
          <path class="cls-2" d="M1427.27,845.73h-254.59c-36.49,0-66.17-29.68-66.17-66.17v-254.59c0-36.49,29.68-66.17,66.17-66.17h254.59c36.49,0,66.17,29.68,66.17,66.17v254.59c0,36.49-29.68,66.17-66.17,66.17ZM1172.68,479.38c-25.14,0-45.6,20.46-45.6,45.6v254.59c0,25.14,20.46,45.6,45.6,45.6h254.59c25.14,0,45.6-20.46,45.6-45.6v-254.59c0-25.14-20.46-45.6-45.6-45.6h-254.59Z"/>
          <path class="cls-2" d="M1299.97,1023.01c-5.68,0-10.29-4.6-10.29-10.29v-177.28c0-5.68,4.6-10.29,10.29-10.29s10.29,4.6,10.29,10.29v177.28c0,5.68-4.6,10.29-10.29,10.29Z"/>
          <path class="cls-2" d="M1249.48,756.76c-5.68,0-10.29-4.6-10.29-10.29v-186.79c0-5.68,4.6-10.29,10.29-10.29h59.61c36.76,0,66.66,29.9,66.66,66.66s-29.9,66.66-66.66,66.66h-49.33v63.76c0,5.68-4.6,10.29-10.29,10.29ZM1259.77,662.14h49.33c25.41,0,46.09-20.67,46.09-46.09s-20.67-46.09-46.09-46.09h-49.33v92.17Z"/>
          <path class="cls-2" d="M2053.23,725.58h-425.53c-5.68,0-10.29-4.6-10.29-10.29s4.6-10.29,10.29-10.29h425.53c5.68,0,10.29,4.6,10.29,10.29s-4.6,10.29-10.29,10.29Z"/>
          <path class="cls-2" d="M1992.08,588.35h-199.95c-5.68,0-10.29-4.6-10.29-10.29s4.6-10.29,10.29-10.29h199.95c5.68,0,10.29,4.6,10.29,10.29s-4.6,10.29-10.29,10.29Z"/>
        </g>
      </g>
    </g>
  </g>
</svg>