<?xml version="1.0" encoding="UTF-8"?>
<svg id="Capa_2" data-name="Capa 2" xmlns="http://www.w3.org/2000/svg" viewBox="0 0 854.34 738.25">
  <defs>
    <style>
      .cls-1 {
        fill: #18304c;
        stroke-width: 0px;
      }
    </style>
  </defs>
  <g id="Capa_1-2" data-name="Capa 1">
    <g>
      <g>
        <path class="cls-1" d="M272.06,738.25H75.94c-2.99,0-5.41-7.68-5.41-17.14s2.42-17.14,5.41-17.14h196.12c2.99,0,5.41,7.68,5.41,17.14s-2.42,17.14-5.41,17.14Z"/>
        <path class="cls-1" d="M848.93,738.25h-200.57c-2.99,0-5.41-7.68-5.41-17.14s2.42-17.14,5.41-17.14h200.57c2.99,0,5.41,7.68,5.41,17.14s-2.42,17.14-5.41,17.14Z"/>
      </g>
      <path class="cls-1" d="M362.12,10.82h-95.88c-2.99,0-5.41-2.42-5.41-5.41s2.42-5.41,5.41-5.41h95.88c2.99,0,5.41,2.42,5.41,5.41s-2.42,5.41-5.41,5.41Z"/>
      <path class="cls-1" d="M238.03,10.82h-52.21c-2.99,0-5.41-2.42-5.41-5.41s2.42-5.41,5.41-5.41h52.21c2.99,0,5.41,2.42,5.41,5.41s-2.42,5.41-5.41,5.41Z"/>
      <path class="cls-1" d="M303.37,47.93h-88.15c-2.99,0-5.41-2.42-5.41-5.41s2.42-5.41,5.41-5.41h88.15c2.99,0,5.41,2.42,5.41,5.41s-2.42,5.41-5.41,5.41Z"/>
      <path class="cls-1" d="M67.79,295.68c-1.38,0-2.77-.53-3.83-1.59-2.11-2.11-2.11-5.54,0-7.65l4.27-4.27c2.11-2.11,5.54-2.11,7.65,0,2.11,2.11,2.11,5.54,0,7.65l-4.27,4.27c-1.06,1.06-2.44,1.59-3.83,1.59Z"/>
      <path class="cls-1" d="M44.76,318.71c-1.38,0-2.77-.53-3.83-1.59-2.11-2.11-2.11-5.54,0-7.65l4.27-4.27c2.11-2.11,5.54-2.11,7.65,0,2.11,2.11,2.11,5.54,0,7.65l-4.27,4.27c-1.06,1.06-2.44,1.59-3.83,1.59Z"/>
      <path class="cls-1" d="M72.06,318.71c-1.38,0-2.77-.53-3.83-1.59l-4.27-4.27c-2.11-2.11-2.11-5.54,0-7.65,2.11-2.11,5.54-2.11,7.65,0l4.27,4.27c2.11,2.11,2.11,5.54,0,7.65-1.06,1.06-2.44,1.59-3.83,1.59Z"/>
      <path class="cls-1" d="M49.03,295.68c-1.39,0-2.77-.53-3.83-1.59l-4.27-4.27c-2.11-2.11-2.11-5.54,0-7.65,2.11-2.11,5.54-2.11,7.65,0l4.27,4.27c2.11,2.11,2.11,5.54,0,7.65-1.06,1.06-2.44,1.59-3.83,1.59Z"/>
      <path class="cls-1" d="M109.61,377.21c-1.39,0-2.77-.53-3.83-1.59l-1.17-1.17c-2.11-2.11-2.11-5.54,0-7.65,2.11-2.11,5.54-2.11,7.65,0l1.17,1.17c2.11,2.11,2.11,5.54,0,7.65-1.06,1.06-2.44,1.58-3.82,1.58Z"/>
      <path class="cls-1" d="M126.38,393.98c-1.39,0-2.77-.53-3.83-1.59l-1.17-1.17c-2.11-2.11-2.11-5.54,0-7.65,2.11-2.11,5.54-2.11,7.65,0l1.17,1.17c2.11,2.11,2.11,5.54,0,7.65-1.06,1.06-2.44,1.58-3.82,1.58Z"/>
      <path class="cls-1" d="M125.21,377.21c-1.38,0-2.77-.53-3.82-1.58-2.11-2.11-2.12-5.54,0-7.65l1.17-1.17c2.11-2.12,5.54-2.11,7.65,0,2.11,2.11,2.12,5.54,0,7.65l-1.17,1.17c-1.06,1.06-2.44,1.59-3.83,1.59Z"/>
      <path class="cls-1" d="M108.44,393.98c-1.38,0-2.77-.53-3.82-1.58-2.11-2.11-2.12-5.54,0-7.65l1.17-1.17c2.11-2.12,5.54-2.11,7.65,0,2.11,2.11,2.12,5.54,0,7.65l-1.17,1.17c-1.06,1.06-2.44,1.59-3.83,1.59Z"/>
      <path class="cls-1" d="M834.5,558.99c-1.38,0-2.77-.53-3.83-1.59-2.11-2.11-2.11-5.54,0-7.65l4.27-4.27c2.11-2.11,5.54-2.11,7.65,0,2.11,2.11,2.11,5.54,0,7.65l-4.27,4.27c-1.06,1.06-2.44,1.59-3.83,1.59Z"/>
      <path class="cls-1" d="M811.47,582.03c-1.38,0-2.77-.53-3.83-1.59-2.11-2.11-2.11-5.54,0-7.65l4.27-4.27c2.11-2.11,5.54-2.11,7.65,0,2.11,2.11,2.11,5.54,0,7.65l-4.27,4.27c-1.06,1.06-2.44,1.59-3.83,1.59Z"/>
      <path class="cls-1" d="M838.77,582.03c-1.38,0-2.77-.53-3.83-1.59l-4.27-4.27c-2.11-2.11-2.11-5.54,0-7.65,2.11-2.11,5.54-2.11,7.65,0l4.27,4.27c2.11,2.11,2.11,5.54,0,7.65-1.06,1.06-2.44,1.59-3.83,1.59Z"/>
      <path class="cls-1" d="M815.74,558.99c-1.39,0-2.77-.53-3.83-1.59l-4.27-4.27c-2.11-2.11-2.11-5.54,0-7.65,2.12-2.11,5.54-2.11,7.65,0l4.27,4.27c2.11,2.11,2.11,5.54,0,7.65-1.06,1.06-2.44,1.59-3.83,1.59Z"/>
      <path class="cls-1" d="M124.59,645.93H5.41c-2.99,0-5.41-2.42-5.41-5.41s2.42-5.41,5.41-5.41h119.18c2.99,0,5.41,2.42,5.41,5.41s-2.42,5.41-5.41,5.41Z"/>
      <path class="cls-1" d="M99.29,610.53h-53.72c-2.99,0-5.41-2.42-5.41-5.41s2.42-5.41,5.41-5.41h53.72c2.99,0,5.41,2.42,5.41,5.41s-2.42,5.41-5.41,5.41Z"/>
      <g>
        <path class="cls-1" d="M621.85,637.21c-.48,0-.96-.06-1.43-.19-1.61-.44-2.92-1.6-3.56-3.14l-20.05-48.06c-7.64-18.31-8.8-38.89-3.27-57.95l79.89-275.34c3.1-10.68,14.31-16.85,24.99-13.75l66.22,19.21c5.17,1.5,9.45,4.93,12.05,9.65,2.6,4.72,3.2,10.17,1.7,15.35l-80.27,276.64-5.2-1.51,5.2,1.51c-5.27,18.16-16.52,34.38-31.67,45.67l-41.36,30.83c-.94.7-2.08,1.07-3.23,1.07ZM692.81,248.8c-4.06,0-7.8,2.66-8.99,6.75l-79.89,275.34c-4.84,16.69-3.82,34.72,2.87,50.76l17.38,41.66,35.8-26.69c13.28-9.89,23.13-24.1,27.75-40.01h0l80.27-276.64c1.44-4.95-1.42-10.15-6.37-11.59l-66.22-19.21c-.87-.25-1.74-.37-2.6-.37Z"/>
        <path class="cls-1" d="M693.99,559.89c-.5,0-1.01-.07-1.51-.22l-94.57-27.44c-2.87-.83-4.52-3.83-3.69-6.7.83-2.87,3.83-4.52,6.7-3.69l94.57,27.44c2.87.83,4.52,3.83,3.69,6.7-.69,2.37-2.85,3.9-5.19,3.9Z"/>
        <path class="cls-1" d="M761.97,445.72c-.5,0-1.01-.07-1.51-.22-2.87-.83-4.52-3.83-3.69-6.7l28.33-97.65c1.93-6.65-1.91-13.63-8.56-15.56l-109.46-31.76c-2.87-.83-4.52-3.83-3.69-6.7.83-2.87,3.84-4.52,6.7-3.69l109.46,31.76c12.38,3.59,19.53,16.59,15.94,28.97l-28.33,97.65c-.69,2.37-2.85,3.9-5.19,3.9Z"/>
        <path class="cls-1" d="M745.97,262.49c-.5,0-1.01-.07-1.51-.22-2.87-.83-4.52-3.83-3.69-6.7l6.72-23.16c.28-.97-.28-1.99-1.25-2.28l-18.45-5.35c-.98-.28-2,.28-2.28,1.25l-6.72,23.16c-.83,2.87-3.83,4.52-6.7,3.69-2.87-.83-4.52-3.83-3.69-6.7l6.72-23.16c.94-3.25,3.09-5.93,6.06-7.56,2.96-1.63,6.38-2.01,9.63-1.07l18.45,5.35c6.7,1.95,10.57,8.98,8.63,15.69l-6.72,23.16c-.69,2.37-2.85,3.9-5.19,3.9Z"/>
        <path class="cls-1" d="M570.62,641.34c-2.86,0-5.98-.39-9.2-1.44-8.48-2.77-15.34-9.26-20.39-19.3-3.76-7.48-5.94-7.83-5.96-7.84-1.77-.2-6.53,5.26-9.39,8.53-5.56,6.38-12.49,14.32-21.92,17.25-11.08,3.44-19.1-.6-26.16-4.16-8.96-4.52-16.03-8.08-30.49,2.69-2.4,1.78-5.79,1.29-7.57-1.11-1.79-2.4-1.29-5.79,1.11-7.57,19.83-14.77,32.03-8.62,41.83-3.68,6.24,3.15,11.17,5.63,18.08,3.49,6.51-2.02,12.07-8.4,16.98-14.03,5.88-6.74,11.43-13.08,18.9-12.16,7.06.89,11.53,8.26,14.27,13.72,10.67,21.23,27.29,13.73,29.14,12.81,2.67-1.32,5.91-.26,7.26,2.39,1.34,2.66.31,5.89-2.34,7.25-.33.17-6.24,3.14-14.15,3.14Z"/>
        <path class="cls-1" d="M638.17,506.59c-.5,0-1.01-.07-1.51-.22-2.87-.83-4.52-3.83-3.69-6.7l50.37-173.59c.83-2.87,3.83-4.52,6.7-3.69,2.87.83,4.52,3.83,3.69,6.7l-50.37,173.59c-.69,2.37-2.85,3.9-5.19,3.9Z"/>
        <path class="cls-1" d="M272.06,720.47c-17.31,0-31.39-14.08-31.39-31.39V202.95c0-8.38,3.26-16.27,9.19-22.19l67.94-67.94c5.93-5.93,13.81-9.19,22.19-9.19h308.36c17.31,0,31.39,14.08,31.39,31.39v70.4c0,2.99-2.42,5.41-5.41,5.41s-5.41-2.42-5.41-5.41v-70.4c0-11.34-9.23-20.56-20.56-20.56h-308.36c-5.49,0-10.66,2.14-14.54,6.02l-67.94,67.94c-3.88,3.88-6.02,9.05-6.02,14.54v486.14c0,11.34,9.23,20.56,20.56,20.56,2.99,0,5.41,2.42,5.41,5.41s-2.42,5.41-5.41,5.41Z"/>
        <path class="cls-1" d="M648.36,720.47c-2.99,0-5.41-2.42-5.41-5.41s2.42-5.41,5.41-5.41c11.34,0,20.56-9.22,20.56-20.56v-45.57c0-2.99,2.42-5.41,5.41-5.41s5.41,2.42,5.41,5.41v45.57c0,17.31-14.08,31.39-31.39,31.39Z"/>
        <path class="cls-1" d="M324.19,197.6h-72.3c-2.99,0-5.41-2.42-5.41-5.41s2.42-5.41,5.41-5.41h72.3c3.1,0,5.62-2.52,5.62-5.62v-26.85c0-2.99,2.42-5.41,5.41-5.41s5.41,2.42,5.41,5.41v26.85c0,9.07-7.38,16.44-16.44,16.44Z"/>
        <path class="cls-1" d="M602.96,263.5h-286.45c-2.99,0-5.41-2.42-5.41-5.41s2.42-5.41,5.41-5.41h286.45c2.99,0,5.41,2.42,5.41,5.41s-2.42,5.41-5.41,5.41Z"/>
        <path class="cls-1" d="M534.78,384.71h-218.27c-2.99,0-5.41-2.42-5.41-5.41s2.42-5.41,5.41-5.41h218.27c2.99,0,5.41,2.42,5.41,5.41s-2.42,5.41-5.41,5.41Z"/>
        <path class="cls-1" d="M602.96,324.1h-286.45c-2.99,0-5.41-2.42-5.41-5.41s2.42-5.41,5.41-5.41h286.45c2.99,0,5.41,2.42,5.41,5.41s-2.42,5.41-5.41,5.41Z"/>
        <path class="cls-1" d="M392.69,580.32c-3.76,0-7.52-1.43-10.38-4.3l-21.12-21.12c-2.77-2.77-4.3-6.46-4.3-10.38s1.53-7.61,4.3-10.38l25.99-25.99-25.99-25.99c-2.77-2.77-4.3-6.46-4.3-10.38s1.53-7.61,4.3-10.38l21.12-21.12c2.77-2.77,6.46-4.3,10.38-4.3s7.61,1.53,10.38,4.3l25.99,25.99,25.99-25.99c2.77-2.77,6.46-4.3,10.38-4.3s7.61,1.53,10.38,4.3l21.12,21.12c5.72,5.72,5.72,15.04,0,20.77l-25.99,25.99,25.99,25.99c5.72,5.72,5.72,15.04,0,20.77l-21.12,21.12c-5.73,5.73-15.04,5.73-20.77,0l-25.99-25.99-25.99,25.99c-2.86,2.86-6.62,4.3-10.38,4.3ZM392.69,446.8c-.99,0-1.98.38-2.73,1.13l-21.12,21.12c-1.51,1.51-1.51,3.96,0,5.46l29.82,29.82c1.01,1.01,1.58,2.39,1.58,3.83s-.57,2.81-1.59,3.83l-29.82,29.81c-.73.73-1.13,1.7-1.13,2.73s.4,2,1.13,2.73l21.12,21.12c1.51,1.51,3.96,1.51,5.46,0l29.82-29.82c2.03-2.03,5.62-2.03,7.65,0l29.82,29.82c1.51,1.51,3.96,1.51,5.46,0l21.12-21.12c1.51-1.51,1.51-3.96,0-5.46l-29.81-29.81c-2.11-2.11-2.11-5.54,0-7.65l29.81-29.82c1.51-1.51,1.51-3.96,0-5.46h0l-21.12-21.12c-1.51-1.51-3.96-1.51-5.46,0l-29.82,29.82c-2.03,2.03-5.62,2.03-7.65,0l-29.82-29.82c-.75-.75-1.74-1.13-2.73-1.13Z"/>
      </g>
    </g>
  </g>
</svg>