<?xml version="1.0" encoding="UTF-8"?>
<svg id="Capa_2" data-name="Capa 2" xmlns="http://www.w3.org/2000/svg" viewBox="0 0 190.2 155.49">
  <defs>
    <style>
      .cls-1 {
        fill: #18304c;
        stroke-width: 0px;
      }
    </style>
  </defs>
  <g id="Capa_1-2" data-name="Capa 1">
    <path class="cls-1" d="M0,81.83c2.68,3.11,5.17,6.41,8.06,9.31,19.9,20.01,39.86,39.97,59.86,59.87,7.84,7.8,19.79,4.98,22.41-5.22,1.33-5.2-.44-9.47-4.18-13.19-12.84-12.75-25.61-25.57-38.4-38.37-.91-.92-1.77-1.9-3.25-3.49,2.21,0,3.62,0,5.04,0,42.13,0,84.26.01,126.39-.01,9.79,0,16.11-7.6,13.76-16.38-1.4-5.22-5.91-9.01-11.38-9.48-1.48-.13-2.97-.06-4.45-.06-41.32,0-82.64,0-123.96,0-1.48,0-2.96,0-5.42,0,1.43-1.53,2.32-2.56,3.28-3.52,12.98-12.99,25.99-25.95,38.93-38.98,4.27-4.3,5.2-9.8,2.84-14.88-2.28-4.9-7.46-8.2-12.82-7.27-2.88.5-6.11,1.86-8.16,3.87C46.82,25.43,25.26,47.04,3.71,68.64,2.24,70.11,1.23,72.02,0,73.72c0,2.7,0,5.4,0,8.11Z"/>
  </g>
</svg>