<?xml version="1.0" encoding="UTF-8"?>
<svg id="Capa_2" data-name="Capa 2" xmlns="http://www.w3.org/2000/svg" viewBox="0 0 681.39 681.39">
  <defs>
    <style>
      .cls-1 {
        fill: #fcfeff;
        stroke: #69757b;
        stroke-linecap: round;
        stroke-miterlimit: 10;
        stroke-width: 19.97px;
      }

      .cls-2 {
        fill: #69757b;
        stroke-width: 0px;
      }
    </style>
  </defs>
  <g id="Capa_1-2" data-name="Capa 1">
    <g>
      <path class="cls-1" d="M194.43,671.41h-85.15c-54.84,0-99.29-44.45-99.29-99.29V109.28C9.99,54.44,54.44,9.99,109.28,9.99h462.84c54.84,0,99.29,44.45,99.29,99.29v462.84c0,54.84-44.45,99.29-99.29,99.29h-84.1"/>
      <g>
        <path class="cls-2" d="M340.2,470.75c-75.9,0-151.8,0-227.69,0-9.49,0-11.54-2.08-11.55-11.67,0-7.9,0-15.79,0-23.69.01-8.59,2.3-10.91,10.84-10.91,72.35,0,144.71,0,217.06,0,79.93,0,159.85,0,239.78,0,9.82,0,11.8,2,11.8,11.91,0,7.9.01,15.79,0,23.69-.01,8.25-2.42,10.68-10.61,10.68-76.54,0-153.08,0-229.63,0ZM116.85,454.8h447.53v-14.37H116.85v14.37Z"/>
        <path class="cls-2" d="M147.23,145.17c0,2.21,0,3.94,0,5.66,0,20.45.01,40.9,0,61.35,0,7.85-2.52,10.32-10.45,10.34-8.86.02-17.71.05-26.57-.01-6.35-.05-9.21-2.82-9.22-9.11-.04-35.11-.04-70.21,0-105.32,0-6.33,2.83-9.16,9.16-9.17,35.11-.04,70.21-.04,105.32,0,6.29,0,9.07,2.87,9.12,9.22.07,9.02.04,18.04.01,27.05-.03,7.29-2.64,9.96-9.85,9.97-20.61.03-41.22.01-61.84.01-1.73,0-3.46,0-5.66,0ZM208.83,114.84h-91.96v91.78h14.85c0-22.44-.01-44.49,0-66.53,0-7.9,2.5-10.41,10.37-10.42,20.44-.02,40.89,0,61.33,0,1.72,0,3.44,0,5.4,0v-14.82Z"/>
        <path class="cls-2" d="M534.16,145.17c-2.21,0-3.94,0-5.67,0-20.45,0-40.9.01-61.36,0-7.87,0-10.32-2.5-10.33-10.44-.02-8.86-.05-17.71.01-26.57.04-6.38,2.78-9.23,9.07-9.24,35.11-.04,70.21-.04,105.32,0,6.32,0,9.19,2.85,9.2,9.15.04,35.11.04,70.21,0,105.32,0,6.28-2.9,9.07-9.24,9.12-9.02.07-18.04.04-27.05.01-7.31-.03-9.94-2.61-9.95-9.84-.03-20.61,0-41.23-.01-61.84,0-1.73,0-3.46,0-5.67ZM564.52,206.75v-91.98h-91.83v14.88c2.12,0,3.88,0,5.63,0,20.12,0,40.24,0,60.36,0,8.58,0,10.98,2.36,10.99,10.79.01,20.44,0,40.88.01,61.33,0,1.69.15,3.37.22,4.98h14.61Z"/>
        <path class="cls-2" d="M147.23,632.31c2.22,0,3.94,0,5.67,0,20.61,0,41.23-.02,61.84.01,7.21,0,9.82,2.67,9.84,9.97.03,9.02.06,18.04-.01,27.05-.05,6.35-2.84,9.21-9.12,9.22-35.11.04-70.21.04-105.32,0-6.31,0-9.15-2.85-9.15-9.18-.04-35.11-.04-70.21,0-105.32,0-6.29,2.86-9.05,9.23-9.1,9.02-.06,18.04-.04,27.05,0,7.29.03,9.94,2.63,9.95,9.86.03,20.61.01,41.23.01,61.84,0,1.73,0,3.45,0,5.66ZM116.9,570.71v91.96h91.77v-14.85c-22.44,0-44.49.01-66.53,0-7.89,0-10.41-2.51-10.42-10.37-.02-20.44,0-40.89,0-61.33,0-1.72,0-3.44,0-5.4h-14.82Z"/>
        <path class="cls-2" d="M534.16,632.31c0-5.14,0-9.77,0-14.4,0-17.55-.01-35.11,0-52.66,0-7.85,2.49-10.28,10.46-10.29,8.86-.02,17.72-.05,26.57.01,6.33.05,9.2,2.84,9.21,9.14.04,35.11.04,70.22,0,105.32,0,6.29-2.89,9.12-9.23,9.13-35.11.04-70.22.04-105.32,0-6.26,0-9-2.89-9.04-9.28-.06-9.18-.05-18.36,0-27.54.04-6.65,2.74-9.41,9.39-9.42,22.38-.04,44.76-.02,67.96-.02ZM549.68,570.72v5.47c0,19.96,0,39.92,0,59.88,0,9.72-2.07,11.75-11.97,11.75-19.96,0-39.92,0-59.88,0h-5.18v14.94h92v-92.04h-14.97Z"/>
        <path class="cls-2" d="M375.11,206.71c-20.62,0-41.24,0-61.86,0-1.61,0-3.27.15-4.81-.2-3.89-.9-6.26-3.44-6.24-7.5.02-4.05,2.41-6.55,6.31-7.44,1.23-.28,2.56-.18,3.85-.18,42.05,0,84.09,0,126.14,0,1.29,0,2.61-.11,3.85.15,3.93.81,6.24,3.27,6.51,7.31.25,3.77-2.63,7.1-6.58,7.73-1.42.23-2.89.14-4.34.14-20.94,0-41.88,0-62.83,0Z"/>
        <path class="cls-2" d="M437.76,284.2c15.95,0,31.89-.02,47.84,0,6.11.01,9.7,2.9,9.7,7.65,0,4.76-3.59,7.65-9.7,7.66-32.21.02-64.43.02-96.64,0-5.99,0-9.62-3.12-9.45-7.9.16-4.61,3.62-7.39,9.45-7.41,16.27-.03,32.54-.01,48.81-.01Z"/>
        <path class="cls-2" d="M228.97,222.32c10.79,0,21.58-.03,32.37.01,6.08.02,9.68,2.96,9.62,7.73-.06,4.76-3.62,7.57-9.78,7.58-21.74.02-43.48.02-65.22,0-6.19,0-9.75-2.76-9.86-7.5-.11-4.92,3.54-7.8,10.01-7.82,10.95-.02,21.9,0,32.85,0Z"/>
        <path class="cls-2" d="M298.04,562.55c-10.95,0-21.9.03-32.85-.01-5.99-.02-9.62-3.11-9.46-7.89.15-4.61,3.62-7.41,9.44-7.42,22.06-.03,44.13-.03,66.19,0,5.73.01,9.22,3,9.23,7.64,0,4.64-3.5,7.63-9.21,7.66-11.11.05-22.22.02-33.34.02Z"/>
        <path class="cls-2" d="M453.01,547.21c10.95,0,21.9-.03,32.85.01,5.8.02,9.29,2.84,9.43,7.43.15,4.77-3.48,7.86-9.48,7.87-21.9.03-43.8.03-65.71,0-6.13,0-9.68-2.9-9.67-7.69.02-4.8,3.54-7.61,9.72-7.63,10.95-.03,21.9,0,32.85,0Z"/>
        <path class="cls-2" d="M460.34,531.6c-8.37,0-16.75.04-25.12-.01-5.75-.04-9.24-2.93-9.32-7.55-.07-4.65,3.43-7.73,9.1-7.75,17.07-.05,34.14-.05,51.2,0,5.65.02,9.17,3.14,9.08,7.78-.09,4.61-3.59,7.49-9.35,7.52-8.53.05-17.07.01-25.6.01Z"/>
        <path class="cls-2" d="M275.22,516.27c8.37,0,16.75-.04,25.12.01,5.74.04,9.24,2.95,9.29,7.57.05,4.63-3.47,7.71-9.14,7.73-17.07.05-34.14.05-51.2,0-5.64-.02-9.15-3.16-9.04-7.81.1-4.48,3.5-7.43,8.89-7.48,8.69-.07,17.39-.02,26.09-.02Z"/>
        <path class="cls-2" d="M321.12,237.65c-8.21,0-16.42.02-24.64,0-6.17-.02-9.73-2.79-9.81-7.54-.09-4.79,3.5-7.76,9.57-7.77,16.75-.03,33.49-.03,50.24,0,6.06.01,9.66,3,9.58,7.77-.08,4.79-3.59,7.52-9.82,7.54-8.37.03-16.75,0-25.12,0Z"/>
        <path class="cls-2" d="M460.26,237.65c-8.37,0-16.75.04-25.12-.01-5.72-.04-9.21-2.99-9.23-7.63-.02-4.64,3.47-7.65,9.18-7.67,17.07-.04,34.14-.05,51.2,0,5.6.02,9.14,3.23,9,7.86-.14,4.46-3.56,7.39-8.95,7.43-8.69.07-17.39.02-26.09.02Z"/>
        <path class="cls-2" d="M329.32,284.2c8.21,0,16.42-.02,24.64,0,6.18.02,9.74,2.78,9.83,7.52.09,4.78-3.51,7.78-9.56,7.79-16.75.03-33.49.03-50.24,0-6.06-.01-9.66-2.99-9.58-7.77.07-4.77,3.61-7.52,9.8-7.55,8.37-.03,16.75,0,25.12,0Z"/>
        <path class="cls-2" d="M348.19,268.59c-7.08,0-14.17.04-21.25-.01-5.77-.04-9.25-2.91-9.33-7.53-.08-4.65,3.42-7.74,9.08-7.76,14.49-.05,28.98-.05,43.47,0,5.65.02,9.18,3.13,9.1,7.76-.08,4.61-3.58,7.49-9.33,7.54-7.24.05-14.49.01-21.74.01Z"/>
        <path class="cls-2" d="M348.44,593.49c-7.08,0-14.17.03-21.25,0-6.06-.03-9.65-2.99-9.58-7.77.07-4.63,3.55-7.52,9.32-7.54,14.33-.04,28.66-.04,42.99,0,5.76.02,9.26,2.9,9.35,7.52.09,4.78-3.52,7.75-9.57,7.79-7.08.04-14.17,0-21.25,0Z"/>
        <path class="cls-2" d="M213.28,547.21c5.8,0,11.59-.04,17.39.01,5.76.05,9.26,2.9,9.35,7.51.09,4.64-3.43,7.76-9.08,7.79-11.91.06-23.83.06-35.74,0-5.66-.03-9.17-3.12-9.1-7.76.07-4.63,3.55-7.49,9.31-7.54,5.96-.05,11.91-.01,17.87-.01Z"/>
        <path class="cls-2" d="M406.48,500.66c-6.12,0-12.24.08-18.35-.02-5.28-.09-8.69-3.24-8.64-7.73.06-4.49,3.45-7.52,8.81-7.55,12.07-.07,24.15-.07,36.22,0,5.37.03,8.79,3.02,8.88,7.49.1,4.64-3.42,7.74-9.06,7.81-5.96.07-11.91.02-17.87.01Z"/>
        <path class="cls-2" d="M212.86,268.59c-5.96,0-11.91.06-17.87-.02-5.38-.07-8.78-3.01-8.89-7.48-.11-4.65,3.39-7.78,9.04-7.81,11.91-.06,23.83-.06,35.74,0,5.67.03,9.19,3.09,9.14,7.72-.05,4.62-3.55,7.53-9.29,7.58-5.96.05-11.91.01-17.87.01Z"/>
        <path class="cls-2" d="M212.8,500.66c-5.96,0-11.91.06-17.87-.02-5.36-.07-8.76-3.06-8.84-7.54-.07-4.5,3.33-7.71,8.61-7.74,12.23-.09,24.47-.09,36.7,0,5.26.04,8.69,3.28,8.6,7.76-.08,4.47-3.5,7.45-8.86,7.52-6.12.08-12.23.02-18.35.02Z"/>
        <path class="cls-2" d="M212.66,593.49c-5.96,0-11.91.07-17.87-.02-5.31-.08-8.71-3.18-8.69-7.68.02-4.49,3.42-7.57,8.76-7.6,12.07-.08,24.15-.07,36.22,0,5.39.03,8.81,2.98,8.94,7.43.14,4.63-3.41,7.79-9,7.86-6.12.07-12.23.02-18.35.02Z"/>
        <path class="cls-2" d="M417.86,268.59c-4.83,0-9.66.09-14.49-.03-5-.12-8.3-3.15-8.41-7.47-.11-4.5,3.29-7.75,8.55-7.8,9.66-.1,19.32-.09,28.97,0,5.28.05,8.71,3.22,8.66,7.7-.05,4.47-3.46,7.49-8.8,7.58-4.83.08-9.66.02-14.49.02Z"/>
        <path class="cls-2" d="M255.93,299.53c-4.99,0-9.98.09-14.97-.03-5.01-.11-8.32-3.12-8.45-7.43-.13-4.5,3.27-7.78,8.51-7.84,9.66-.1,19.32-.09,28.97,0,5.3.05,8.72,3.18,8.7,7.67-.02,4.48-3.44,7.52-8.76,7.62-4.67.09-9.34.02-14,.02Z"/>
        <path class="cls-2" d="M208.94,206.7c-4.67,0-9.34.06-14-.02-5.36-.09-8.76-3.06-8.84-7.53-.08-4.5,3.33-7.7,8.6-7.75,9.66-.09,19.32-.09,28.97,0,5.26.05,8.69,3.28,8.6,7.76-.08,4.47-3.5,7.44-8.85,7.53-4.83.08-9.66.02-14.49.02Z"/>
        <path class="cls-2" d="M279.19,485.34c4.83,0,9.66-.11,14.49.03,4.94.14,8.24,3.32,8.23,7.64-.01,4.32-3.32,7.55-8.26,7.61-9.98.12-19.96.13-29.94-.01-4.67-.07-7.85-3.23-7.98-7.39-.14-4.34,3.13-7.68,8.01-7.84,5.15-.16,10.3-.04,15.45-.04Z"/>
        <path class="cls-2" d="M340.45,500.66c-4.67,0-9.34.06-14-.02-5.36-.09-8.76-3.06-8.84-7.53-.08-4.5,3.33-7.7,8.6-7.75,9.66-.09,19.32-.09,28.97,0,5.26.05,8.69,3.28,8.6,7.76-.08,4.47-3.5,7.38-8.85,7.54-.16,0-.32,0-.48,0-4.67,0-9.34,0-14,0Z"/>
        <path class="cls-2" d="M471.73,500.66c-4.67,0-9.34.08-14-.02-5.27-.11-8.68-3.27-8.61-7.76.07-4.33,3.36-7.45,8.35-7.51,9.82-.11,19.64-.11,29.46,0,4.98.06,8.29,3.19,8.37,7.5.08,4.48-3.34,7.66-8.6,7.77-4.99.1-9.98.02-14.97.02Z"/>
        <path class="cls-2" d="M279.09,578.16c4.83,0,9.66-.1,14.49.03,4.97.13,8.28,3.23,8.33,7.55.05,4.33-3.23,7.64-8.16,7.7-9.98.13-19.96.14-29.94,0-4.9-.07-8.18-3.44-8.08-7.78.1-4.32,3.39-7.35,8.4-7.47,4.99-.12,9.98-.03,14.97-.02Z"/>
        <path class="cls-2" d="M278.62,268.59c-4.83,0-9.66.09-14.49-.03-5-.12-8.3-3.15-8.41-7.47-.11-4.5,3.29-7.75,8.55-7.8,9.66-.1,19.32-.09,28.97,0,5.28.05,8.7,3.23,8.66,7.71-.05,4.47-3.46,7.48-8.8,7.58-4.83.08-9.66.02-14.49.02Z"/>
        <path class="cls-2" d="M418.3,578.16c4.67,0,9.34-.06,14,.02,5.35.09,8.77,3.06,8.85,7.53.08,4.48-3.35,7.7-8.61,7.76-9.66.1-19.32.1-28.97,0-5.26-.05-8.68-3.27-8.6-7.76.08-4.48,3.47-7.43,8.84-7.52,4.83-.08,9.66-.02,14.49-.02Z"/>
        <path class="cls-2" d="M205.1,531.59c-3.7,0-7.41.12-11.1-.04-4.65-.2-7.81-3.31-7.9-7.47-.09-4.35,3.16-7.66,8.09-7.76,7.4-.15,14.81-.14,22.21,0,4.92.09,8.21,3.38,8.15,7.71-.06,4.31-3.37,7.39-8.33,7.55-3.7.12-7.4.02-11.1.02Z"/>
        <path class="cls-2" d="M475.89,268.58c-3.7,0-7.41.12-11.1-.04-4.66-.2-7.83-3.29-7.93-7.44-.11-4.35,3.15-7.69,8.06-7.79,7.4-.15,14.81-.14,22.21,0,4.92.09,8.22,3.36,8.18,7.68-.04,4.32-3.35,7.41-8.31,7.57-3.7.12-7.4.02-11.1.02Z"/>
        <path class="cls-2" d="M390.76,531.6c-3.54,0-7.08.09-10.62-.02-4.99-.16-8.29-3.18-8.38-7.5-.09-4.35,3.17-7.65,8.09-7.75,7.4-.15,14.81-.14,22.21,0,4.91.09,8.21,3.39,8.14,7.71-.06,4.31-3.37,7.31-8.34,7.56-.16,0-.32,0-.48,0-3.54,0-7.08,0-10.62,0Z"/>
        <path class="cls-2" d="M267.11,206.69c-3.7,0-7.41.12-11.1-.03-4.88-.2-8.15-3.5-8.02-7.84.12-4.16,3.29-7.3,7.96-7.39,7.56-.15,15.13-.17,22.69,0,4.6.11,7.77,3.42,7.79,7.57.02,4.15-3.14,7.42-7.73,7.64-3.85.19-7.72.04-11.58.04Z"/>
        <path class="cls-2" d="M390.74,237.64c-3.54,0-7.08.09-10.62-.02-4.98-.16-8.28-3.2-8.36-7.52-.08-4.35,3.19-7.64,8.11-7.74,7.4-.15,14.81-.14,22.21,0,4.9.09,8.2,3.42,8.13,7.73-.07,4.31-3.38,7.37-8.36,7.52-3.7.11-7.4.02-11.1.02Z"/>
        <path class="cls-2" d="M375.74,547.22c3.54,0,7.08-.09,10.62.02,4.98.15,8.29,3.19,8.37,7.5.08,4.32-3.22,7.65-8.11,7.75-7.4.15-14.81.15-22.21,0-4.92-.1-8.19-3.39-8.12-7.73.07-4.33,3.36-7.37,8.35-7.52,3.7-.11,7.4-.02,11.1-.02Z"/>
        <path class="cls-2" d="M475.72,593.46c-3.7,0-7.41.15-11.1-.03-4.62-.22-7.76-3.43-7.77-7.6-.01-4.18,3.12-7.5,7.74-7.61,7.72-.18,15.45-.19,23.17.02,4.53.12,7.67,3.67,7.53,7.8-.13,3.98-3.16,7.13-7.51,7.36-4.01.21-8.04.05-12.07.05Z"/>
        <path class="cls-2" d="M479.76,206.64c-2.73,0-5.5.26-8.2-.06-4.2-.51-6.66-3.1-6.94-7.36-.27-3.97,2.79-7.5,7.05-7.72,5.45-.28,10.94-.27,16.4-.01,4.29.2,7.26,3.62,7.22,7.61-.03,3.99-3.02,7.19-7.33,7.53-2.72.21-5.47.04-8.2.04,0,0,0-.01,0-.02Z"/>
        <path class="cls-2" d="M340.9,516.29c2.41,0,4.83-.11,7.24.02,4.64.25,7.82,3.32,7.91,7.47.09,4.17-3.02,7.56-7.6,7.75-5.14.22-10.3.21-15.44,0-4.6-.18-7.72-3.51-7.67-7.69.05-4.17,3.19-7.27,7.84-7.53,2.57-.14,5.15-.03,7.72-.03Z"/>
        <path class="cls-2" d="M201.25,299.5c-2.57,0-5.16.16-7.72-.04-4.33-.33-7.34-3.45-7.43-7.43-.1-4.17,3.01-7.56,7.59-7.75,5.14-.21,10.3-.21,15.44,0,4.58.18,7.73,3.52,7.68,7.67-.05,4.14-3.22,7.28-7.83,7.55-2.57.15-5.15.03-7.72.03,0,0,0-.01,0-.02Z"/>
        <path class="cls-2" d="M375.11,322.85c-20.62,0-41.24,0-61.86,0-1.61,0-3.27.15-4.81-.2-3.89-.9-6.26-3.44-6.24-7.5.02-4.05,2.41-6.55,6.31-7.44,1.23-.28,2.56-.18,3.85-.18,42.05,0,84.09,0,126.14,0,1.29,0,2.61-.11,3.85.15,3.93.81,6.24,3.27,6.51,7.31.25,3.77-2.63,7.1-6.58,7.73-1.42.23-2.89.14-4.34.14-20.94,0-41.88,0-62.83,0Z"/>
        <path class="cls-2" d="M437.76,400.34c15.95,0,31.89-.02,47.84,0,6.11.01,9.7,2.9,9.7,7.65,0,4.76-3.59,7.65-9.7,7.66-32.21.02-64.43.02-96.64,0-5.99,0-9.62-3.12-9.45-7.9.16-4.61,3.62-7.39,9.45-7.41,16.27-.03,32.54-.01,48.81-.01Z"/>
        <path class="cls-2" d="M228.97,338.46c10.79,0,21.58-.03,32.37.01,6.08.02,9.68,2.96,9.62,7.73-.06,4.76-3.62,7.57-9.78,7.58-21.74.02-43.48.02-65.22,0-6.19,0-9.75-2.76-9.86-7.5-.11-4.92,3.54-7.8,10.01-7.82,10.95-.02,21.9,0,32.85,0Z"/>
        <path class="cls-2" d="M321.12,353.79c-8.21,0-16.42.02-24.64,0-6.17-.02-9.73-2.79-9.81-7.54-.09-4.79,3.5-7.76,9.57-7.77,16.75-.03,33.49-.03,50.24,0,6.06.01,9.66,3,9.58,7.77-.08,4.79-3.59,7.52-9.82,7.54-8.37.03-16.75,0-25.12,0Z"/>
        <path class="cls-2" d="M460.26,353.79c-8.37,0-16.75.04-25.12-.01-5.72-.04-9.21-2.99-9.23-7.63-.02-4.64,3.47-7.65,9.18-7.67,17.07-.04,34.14-.05,51.2,0,5.6.02,9.14,3.23,9,7.86-.14,4.46-3.56,7.39-8.95,7.43-8.69.07-17.39.02-26.09.02Z"/>
        <path class="cls-2" d="M329.32,400.34c8.21,0,16.42-.02,24.64,0,6.18.02,9.74,2.78,9.83,7.52.09,4.78-3.51,7.78-9.56,7.79-16.75.03-33.49.03-50.24,0-6.06-.01-9.66-2.99-9.58-7.77.07-4.77,3.61-7.52,9.8-7.55,8.37-.03,16.75,0,25.12,0Z"/>
        <path class="cls-2" d="M348.19,384.73c-7.08,0-14.17.04-21.25-.01-5.77-.04-9.25-2.91-9.33-7.53-.08-4.65,3.42-7.74,9.08-7.76,14.49-.05,28.98-.05,43.47,0,5.65.02,9.18,3.13,9.1,7.76-.08,4.61-3.58,7.49-9.33,7.54-7.24.05-14.49.01-21.74.01Z"/>
        <path class="cls-2" d="M212.86,384.73c-5.96,0-11.91.06-17.87-.02-5.38-.07-8.78-3.01-8.89-7.48-.11-4.65,3.39-7.78,9.04-7.81,11.91-.06,23.83-.06,35.74,0,5.67.03,9.19,3.09,9.14,7.72-.05,4.62-3.55,7.53-9.29,7.58-5.96.05-11.91.01-17.87.01Z"/>
        <path class="cls-2" d="M417.86,384.73c-4.83,0-9.66.09-14.49-.03-5-.12-8.3-3.15-8.41-7.47-.11-4.5,3.29-7.75,8.55-7.8,9.66-.1,19.32-.09,28.97,0,5.28.05,8.71,3.22,8.66,7.7-.05,4.47-3.46,7.49-8.8,7.58-4.83.08-9.66.02-14.49.02Z"/>
        <path class="cls-2" d="M255.93,415.67c-4.99,0-9.98.09-14.97-.03-5.01-.11-8.32-3.12-8.45-7.43-.13-4.5,3.27-7.78,8.51-7.84,9.66-.1,19.32-.09,28.97,0,5.3.05,8.72,3.18,8.7,7.67-.02,4.48-3.44,7.52-8.76,7.62-4.67.09-9.34.02-14,.02Z"/>
        <path class="cls-2" d="M208.94,322.84c-4.67,0-9.34.06-14-.02-5.36-.09-8.76-3.06-8.84-7.53-.08-4.5,3.33-7.7,8.6-7.75,9.66-.09,19.32-.09,28.97,0,5.26.05,8.69,3.28,8.6,7.76-.08,4.47-3.5,7.44-8.85,7.53-4.83.08-9.66.02-14.49.02Z"/>
        <path class="cls-2" d="M278.62,384.73c-4.83,0-9.66.09-14.49-.03-5-.12-8.3-3.15-8.41-7.47-.11-4.5,3.29-7.75,8.55-7.8,9.66-.1,19.32-.09,28.97,0,5.28.05,8.7,3.23,8.66,7.71-.05,4.47-3.46,7.48-8.8,7.58-4.83.08-9.66.02-14.49.02Z"/>
        <path class="cls-2" d="M475.89,384.72c-3.7,0-7.41.12-11.1-.04-4.66-.2-7.83-3.29-7.93-7.44-.11-4.35,3.15-7.69,8.06-7.79,7.4-.15,14.81-.14,22.21,0,4.92.09,8.22,3.36,8.18,7.68-.04,4.32-3.35,7.41-8.31,7.57-3.7.12-7.4.02-11.1.02Z"/>
        <path class="cls-2" d="M267.11,322.83c-3.7,0-7.41.12-11.1-.03-4.88-.2-8.15-3.5-8.02-7.84.12-4.16,3.29-7.3,7.96-7.39,7.56-.15,15.13-.17,22.69,0,4.6.11,7.77,3.42,7.79,7.57.02,4.15-3.14,7.42-7.73,7.64-3.85.19-7.72.04-11.58.04Z"/>
        <path class="cls-2" d="M390.74,353.78c-3.54,0-7.08.09-10.62-.02-4.98-.16-8.28-3.2-8.36-7.52-.08-4.35,3.19-7.64,8.11-7.74,7.4-.15,14.81-.14,22.21,0,4.9.09,8.2,3.42,8.13,7.73-.07,4.31-3.38,7.37-8.36,7.52-3.7.11-7.4.02-11.1.02Z"/>
        <path class="cls-2" d="M479.76,322.78c-2.73,0-5.5.26-8.2-.06-4.2-.51-6.66-3.1-6.94-7.36-.27-3.97,2.79-7.5,7.05-7.72,5.45-.28,10.94-.27,16.4-.01,4.29.2,7.26,3.62,7.22,7.61-.03,3.99-3.02,7.19-7.33,7.53-2.72.21-5.47.04-8.2.04,0,0,0-.01,0-.02Z"/>
        <path class="cls-2" d="M201.25,415.64c-2.57,0-5.16.16-7.72-.04-4.33-.33-7.34-3.45-7.43-7.43-.1-4.17,3.01-7.56,7.59-7.75,5.14-.21,10.3-.21,15.44,0,4.58.18,7.73,3.52,7.68,7.67-.05,4.14-3.22,7.28-7.83,7.55-2.57.15-5.15.03-7.72.03,0,0,0-.01,0-.02Z"/>
      </g>
    </g>
  </g>
</svg>