<?xml version="1.0" encoding="UTF-8"?>
<svg id="Capa_2" data-name="Capa 2" xmlns="http://www.w3.org/2000/svg" viewBox="0 0 681.39 681.39">
  <defs>
    <style>
      .cls-1 {
        fill: #18304c;
        stroke-width: 0px;
      }

      .cls-2 {
        fill: #fcfeff;
        stroke: #69757b;
        stroke-linecap: round;
        stroke-miterlimit: 10;
        stroke-width: 19.97px;
      }
    </style>
  </defs>
  <g id="Capa_1-2" data-name="Capa 1">
    <g>
      <g>
        <path class="cls-2" d="M291.81,671.41H109.28c-54.84,0-99.29-44.45-99.29-99.29V109.28C9.99,54.44,54.44,9.99,109.28,9.99h462.84c54.84,0,99.29,44.45,99.29,99.29v462.84c0,54.84-44.45,99.29-99.29,99.29h-157.52"/>
        <g>
          <path class="cls-1" d="M611.14,321.5c-2.72,7.73-4.38,16.07-8.37,23.09-11.57,20.4-29.74,30.94-53.17,31.67-15.3.48-30.63.15-45.94.1-6.71-.02-10.67-3.3-10.54-8.48.12-4.99,3.93-8.14,10.35-8.18,14.08-.09,28.16,0,42.25-.04,29.44-.08,48.69-19.13,48.73-48.49.08-64.25.08-128.5,0-192.75-.04-29.36-19.29-48.46-48.74-48.47-107.9-.04-215.81-.01-323.71-.04-2.27,0-4.6-.05-6.8-.52-4.14-.9-6.41-3.78-6.37-7.93.04-4.17,2.47-6.93,6.55-7.83,2.03-.45,4.19-.39,6.29-.39,107.73-.02,215.46-.02,323.18-.01,34.94,0,58.42,19.19,65.56,53.49.1.49.48.93.73,1.39v213.38Z"/>
          <path class="cls-1" d="M340.72,92.06c68.48,0,136.95-.01,205.43.01,13.3,0,22.25,6.07,25.23,17.23.8,3.01.95,6.26.96,9.39.05,64.08.06,128.15.02,192.23-.01,17.45-9.24,26.61-26.75,26.61-136.6.02-273.2.02-409.8,0-17.49,0-26.72-9.17-26.73-26.63-.04-64.08-.04-128.15,0-192.23.01-17.45,9.24-26.61,26.75-26.61,68.3-.02,136.6,0,204.9,0ZM125.71,265.36h429.92v-100.99H125.71v100.99ZM125.58,146.89h430.39c0-8.73,0-17.14,0-25.55,0-11.32-1.52-12.86-12.74-12.86-135.02,0-270.04,0-405.06,0-1.76,0-3.53-.05-5.28.1-4.25.38-7.13,2.7-7.24,6.97-.25,10.34-.08,20.68-.08,31.33ZM555.84,282.72H125.46c0,8.73,0,17.14,0,25.54,0,11.33,1.52,12.87,12.73,12.87,135.02,0,270.04,0,405.06,0,1.76,0,3.53.05,5.28-.1,4.25-.38,7.14-2.69,7.25-6.96.25-10.34.08-20.69.08-31.35Z"/>
          <path class="cls-1" d="M297.56,376.38c-54.4,0-108.8.07-163.21-.03-30.84-.05-55.34-19.08-62.34-48.42-1.21-5.08-1.65-10.45-1.66-15.68-.11-64.97-.13-129.93-.05-194.9.05-36.89,27.13-63.91,64.06-64.1,15.49-.08,30.99-.03,46.48,0,1.74,0,3.55.1,5.21.58,3.81,1.11,5.86,3.79,5.81,7.81-.06,4-2.08,6.7-5.97,7.65-2.02.49-4.17.6-6.26.61-15.14.05-30.28-.1-45.42.06-27.58.28-47.05,19.23-47.16,46.81-.26,65.32-.26,130.64,0,195.95.11,28.25,19.8,46.92,48.65,46.92,108.98.04,217.96.01,326.94.04,2.45,0,4.95.05,7.33.54,4.17.86,6.29,3.71,6.25,7.95-.04,4.3-2.44,6.91-6.51,7.8-2.03.44-4.19.38-6.3.38-55.28.02-110.56.01-165.85.01Z"/>
          <path class="cls-1" d="M201.11,174.67c9.04,0,17.8-.5,26.47.16,6.53.5,11.15,4.86,12.14,11.41,1.47,9.73,2.89,19.76-6.91,27.31,11.62,7.74,9.67,19.45,8.56,30.7-.75,7.55-5.55,12.88-13.08,13.81-8.83,1.09-17.81.99-27.19,1.43v-84.83ZM214.36,221.1v26.92c4.83-1.47,11.95-2.01,12.44-4.09,1.47-6.32,1.65-13.61-.12-19.82-1.45-5.08-7.67-3.04-12.32-3ZM214.3,184.8v24.88c4.26-1.48,8.31-2,11.19-4.13,2.86-2.12,3.15-14.06.3-16.39-2.75-2.24-6.93-2.74-11.48-4.36Z"/>
          <path class="cls-1" d="M189.48,258.81h-13c-.84-5.03-1.64-9.84-2.49-14.95h-16.2c-.61,3.61-1.59,7.2-1.74,10.83-.16,3.84-1.92,4.75-5.32,4.44-2.4-.22-4.84-.04-7.65-.04,3.09-19.36,6.08-38.1,9.07-56.83,1.22-7.64,2.77-15.24,3.56-22.93.47-4.57,2.27-6.2,6.67-5.53,1.55.24,3.16.04,4.75.04,9.06,0,9.14-.01,10.58,8.87,3.97,24.47,7.86,48.95,11.77,73.43.11.68.01,1.39.01,2.66ZM159.44,231.62h12.71c-2.01-13.54-3.96-26.65-5.91-39.76-.27,0-.54-.02-.81-.03-1.97,13.12-3.95,26.25-5.98,39.79Z"/>
          <path class="cls-1" d="M526.44,214.26c6.55,3.88,8.8,9.75,8.68,16.66-.09,5.25.05,10.62-1.03,15.69-1.89,8.84-9.01,13.53-18.87,13.46-9.67-.08-16.57-4.68-18.58-13.24-1.1-4.69-1.04-9.64-1.54-14.86h12.62c.2,2.92.38,5.83.6,8.74.33,4.21,2.09,7.02,6.82,6.98,4.48-.04,6.12-2.77,6.45-6.74.18-2.1.41-4.2.4-6.31-.01-11.48-1.31-12.92-12.88-14.17v-11.27c.2-.14.46-.46.75-.5,3.84-.54,9.38,1.12,10.56-3.72,1.26-5.2.72-11,0-16.41-.18-1.36-4.23-3.27-6.25-3-2.01.27-4.42,2.63-5.34,4.66-1.1,2.42-.8,5.48-1.14,8.49h-11.48c-2.52-10.75,1.94-20.86,10.63-24.25,9.65-3.76,20.88-.72,25.42,6.88,5.9,9.87,3.35,25.56-5.79,32.89Z"/>
          <path class="cls-1" d="M292.92,202.23c-.87.15-1.38.29-1.9.31q-9.79.48-10.33-9.11c-.32-5.71-2.36-8.18-6.78-8.19-4.34-.01-6.84,2.5-6.9,8.16-.19,15.47-.2,30.94.02,46.41.08,5.59,2.68,7.98,7.19,7.78,5.08-.23,6.38-3.6,6.44-7.91.05-3.84.01-7.68.01-11.9h12.7c-.29,7.25,1.07,14.72-2.06,21.92-3.3,7.58-11.63,11.51-21.19,10.09-9.42-1.39-15.4-6.91-15.96-16.14-.65-10.69-.48-21.43-.52-32.15-.02-7.2-.12-14.43.42-21.61.79-10.45,7.65-16.41,18.65-16.9,10.78-.48,18.48,5.12,20.08,15.3.69,4.42.12,9.03.12,13.94Z"/>
          <path class="cls-1" d="M456.2,202.28h-13.44c.74-6.09.79-11.92,2.28-17.36,2.24-8.13,9.54-12.29,18.95-11.94,9.89.36,16.17,4.99,18.28,13.66,3.04,12.48-1.04,23.23-8.47,32.99-3.62,4.75-7.77,9.09-11.54,13.73-2.99,3.68-5.96,7.45-5.28,13.38h24.84v11.94h-38.03c-2-12.54.97-23.6,9.45-33.47,5.22-6.08,10.23-12.53,14.07-19.52,2.11-3.85,1.98-9.12,2.15-13.77.14-3.95-2.04-6.67-6.46-6.69-4.37-.02-6.42,2.59-6.75,6.56-.28,3.29-.06,6.62-.06,10.48Z"/>
          <path class="cls-1" d="M422.28,258.83h-12.87v-64.41c-3.6-.24-6.82-.45-10.3-.67v-9.42c7.26.82,11.32-3.27,14.59-9.37.8-1.49,5.33-.97,8.57-1.44v85.31Z"/>
          <path class="cls-1" d="M329.26,222.09v-11.24h23.83v11.24h-23.83Z"/>
          <path class="cls-1" d="M206.34,119.03c4.89-.1,9,4,9.01,8.99.01,4.86-3.63,8.68-8.46,8.88-5.05.2-9.18-3.59-9.34-8.59-.16-4.88,3.92-9.18,8.79-9.28Z"/>
          <path class="cls-1" d="M474.9,119.03c4.84-.03,9.03,4.2,8.99,9.07-.04,4.96-4.12,8.89-9.15,8.79-4.83-.09-8.57-3.84-8.66-8.68-.09-4.97,3.92-9.16,8.81-9.18Z"/>
          <path class="cls-1" d="M474.99,292.89c5.01.03,9.03,4.1,8.92,9.05-.11,4.87-4.45,9.01-9.26,8.83-4.69-.18-8.55-4.17-8.6-8.9-.05-5.05,3.89-9.01,8.94-8.98Z"/>
          <path class="cls-1" d="M206.29,310.78c-4.88-.13-8.92-4.45-8.73-9.33.2-5.01,4.34-8.79,9.39-8.56,4.83.22,8.46,4.08,8.43,8.95-.04,4.97-4.2,9.06-9.09,8.93Z"/>
        </g>
      </g>
      <path class="cls-2" d="M412.46,666.65c44.2-18.1,82.34-59.28,82.24-135.76h-.12c.05-.86.12-1.71.12-2.58,0,0-1.24-83.01-5.44-117.08-.16-2.87-.86-5.7-1.79-9.92-2.99-13.56-17.66-21.63-29.81-21.72-9.9-.08-17.11,3.99-22.86,10.7-1.22-19.97-16.46-33.86-35.12-33.84-11.92.02-21.91,6.03-28.63,15.13-3.41-17.65-18.02-29.54-35.51-29.51-15.22.02-28.21,9.07-33.55,23.05l-.16-124.51c-.03-21.93-15.03-39.7-33.51-39.67-18.48.02-33.43,17.83-33.4,39.76l.28,218.08c-4.71-13.8-9.01-25.96-12.36-34.6-11.92-30.79-34.99-49.68-53.88-45.65-28.21,6.04-7.66,50.84.5,84.99,6.7,28.05,21.45,81.4,26.64,94.3,9.06,22.52,18.74,41.69,28.44,54.6,17.14,26.12,39.68,43.82,65.41,54.22"/>
    </g>
  </g>
</svg>